# Blender 3.4.1
# www.blender.org
mtllib Desk_UV_Artifact_Fixobj.mtl
o Desk
v -1.056457 0.073772 -2.552112
v -1.056457 0.073772 -5.991558
v -1.056457 6.462463 -5.991558
v 5.524057 0.306271 -2.784548
v 5.524057 0.306271 -5.759121
v 5.524057 6.841853 -5.991558
v 5.524057 6.841853 -2.497677
v 5.524057 6.462463 -9.775977
v 5.524057 6.841853 -9.775977
v -1.056457 4.720302 -2.552112
v -1.056457 4.720302 -5.991558
v 5.524057 4.822331 -5.735854
v 5.524057 4.822331 -2.807816
v 5.524057 6.462463 -5.991558
v 5.524057 4.586275 -5.720738
v 5.524057 4.586275 -2.822932
v -0.469823 6.462463 -5.735855
v -0.469823 6.462463 -2.807816
v -0.469823 4.822331 -5.735854
v -0.469823 4.822331 -2.807816
v -1.056457 2.397037 -5.991558
v 5.524057 2.514186 -5.720738
v 5.524057 2.514186 -2.822932
v -1.056457 2.397037 -2.552112
v 5.524057 4.720302 -5.991558
v 5.524057 4.720302 -2.552112
v 5.524057 2.301404 -5.759121
v 5.524057 2.301404 -2.784548
v 5.524057 2.397037 -5.991558
v 5.524057 0.073772 -5.991558
v 5.524057 0.073772 -2.552112
v 5.524057 2.397037 -2.552112
v -0.469823 4.586275 -5.720738
v -0.469823 4.586275 -2.822932
v -0.469823 2.514186 -5.720738
v -0.469823 2.514186 -2.822932
v -0.469823 2.301404 -5.759121
v -0.469823 0.306271 -5.759121
v -0.469823 0.306271 -2.784548
v -0.469823 2.301404 -2.784548
v 5.524057 6.462463 -2.807816
v 5.524057 6.462463 -5.735855
v 5.524057 6.462463 -2.552112
v -1.031502 6.841853 -2.497677
v 5.537273 6.841853 -5.991558
v 5.549853 6.799669 -5.991558
v 5.546168 6.829498 -5.991558
v 5.536797 6.841853 -9.775977
v 5.549853 6.799669 -9.775977
v 5.546029 6.829498 -9.775977
v -1.056457 6.799669 -2.417303
v -1.049148 6.829498 -2.432714
v 5.527709 6.841853 -2.470335
v 5.530078 6.799669 -2.417303
v 5.529384 6.829498 -2.432837
v 5.549853 6.799669 -2.450721
v 5.538739 6.841853 -2.494405
v 5.546597 6.829498 -2.463515
v 5.544061 6.799669 -2.427091
v 5.536000 6.841853 -2.477468
v 5.541700 6.829498 -2.441846
v -1.053788 6.466975 -2.552112
v 5.549853 6.477868 -5.991558
v 5.544405 6.462463 -5.991558
v 5.548257 6.466975 -5.991558
v 5.549853 6.477868 -9.775977
v 5.544264 6.462463 -9.775977
v 5.548216 6.466975 -9.775977
v 5.549853 6.477868 -5.735855
v 5.544840 6.462463 -5.735855
v 5.548384 6.466975 -5.735855
v -1.053788 6.462463 -2.437111
v -1.053788 6.477868 -2.417303
v -1.053788 6.466975 -2.423105
v 5.545602 6.462463 -2.467429
v 5.549853 6.477868 -2.450721
v 5.548608 6.466975 -2.455615
v 5.530078 6.477868 -2.417303
v 5.529185 6.462463 -2.437288
v 5.529817 6.466975 -2.423156
v 5.544061 6.477868 -2.427091
v 5.541014 6.462463 -2.446134
v 5.543169 6.466975 -2.432669
v -1.056457 6.462463 -9.775977
v -1.056457 6.799669 -2.552112
v -1.049148 6.829498 -2.552112
v -1.056457 6.799669 -5.991558
v -1.031502 6.841853 -5.991558
v -1.049148 6.829498 -5.991558
v -1.056457 6.799669 -9.775977
v -1.031502 6.841853 -9.775977
v -1.049148 6.829498 -9.775977
v -1.031502 6.841853 -2.469917
v -1.056457 0.073772 -16.999844
v -1.056457 0.073772 -13.560396
v -1.056457 6.462463 -13.560396
v 5.524057 0.306271 -16.767406
v 5.524057 0.306271 -13.792833
v 5.524057 6.841853 -13.560396
v 5.524057 6.841853 -17.054277
v -1.056457 4.720302 -16.999844
v -1.056457 4.720302 -13.560396
v 5.524057 4.822331 -13.816100
v 5.524057 4.822331 -16.744139
v 5.524057 6.462463 -13.560396
v 5.524057 4.586275 -13.831216
v 5.524057 4.586275 -16.729023
v -0.469823 6.462463 -13.816099
v -0.469823 6.462463 -16.744139
v -0.469823 4.822331 -13.816100
v -0.469823 4.822331 -16.744139
v -1.056457 2.397037 -13.560396
v 5.524057 2.514186 -13.831216
v 5.524057 2.514186 -16.729023
v -1.056457 2.397037 -16.999844
v 5.524057 4.720302 -13.560396
v 5.524057 4.720302 -16.999844
v 5.524057 2.301404 -13.792833
v 5.524057 2.301404 -16.767406
v 5.524057 2.397037 -13.560396
v 5.524057 0.073772 -13.560396
v 5.524057 0.073772 -16.999844
v 5.524057 2.397037 -16.999844
v -0.469823 4.586275 -13.831216
v -0.469823 4.586275 -16.729023
v -0.469823 2.514186 -13.831216
v -0.469823 2.514186 -16.729023
v -0.469823 2.301404 -13.792833
v -0.469823 0.306271 -13.792833
v -0.469823 0.306271 -16.767406
v -0.469823 2.301404 -16.767406
v 5.524057 6.462463 -16.744139
v 5.524057 6.462463 -13.816099
v 5.524057 6.462463 -16.999844
v -1.031502 6.841853 -17.054277
v 5.537273 6.841853 -13.560396
v 5.549853 6.799669 -13.560396
v 5.546168 6.829498 -13.560396
v -1.056457 6.799669 -17.134651
v -1.049148 6.829498 -17.119240
v 5.527709 6.841853 -17.081619
v 5.530078 6.799669 -17.134651
v 5.529384 6.829498 -17.119118
v 5.549853 6.799669 -17.101234
v 5.538739 6.841853 -17.057549
v 5.546597 6.829498 -17.088440
v 5.544061 6.799669 -17.124863
v 5.536000 6.841853 -17.074486
v 5.541700 6.829498 -17.110107
v -1.053788 6.466975 -16.999844
v 5.549853 6.477868 -13.560396
v 5.544405 6.462463 -13.560396
v 5.548257 6.466975 -13.560396
v 5.549853 6.477868 -13.816099
v 5.544840 6.462463 -13.816099
v 5.548384 6.466975 -13.816099
v -1.053788 6.462463 -17.114843
v -1.053788 6.477868 -17.134651
v -1.053788 6.466975 -17.128849
v 5.545602 6.462463 -17.084526
v 5.549853 6.477868 -17.101234
v 5.548608 6.466975 -17.096340
v 5.530078 6.477868 -17.134651
v 5.529185 6.462463 -17.114666
v 5.529817 6.466975 -17.128799
v 5.544061 6.477868 -17.124863
v 5.541014 6.462463 -17.105820
v 5.543169 6.466975 -17.119286
v -1.056457 6.799669 -16.999844
v -1.049148 6.829498 -16.999844
v -1.056457 6.799669 -13.560396
v -1.031502 6.841853 -13.560396
v -1.049148 6.829498 -13.560396
v -1.031502 6.841853 -17.082037
vn -0.0000 -0.0000 -1.0000
vn -0.0000 -1.0000 -0.0000
vn 0.9982 0.0598 -0.0000
vn 0.9975 -0.0710 -0.0001
vn 0.9973 -0.0729 -0.0000
vn 0.9981 0.0621 -0.0000
vn -0.0000 -0.0000 1.0000
vn 1.0000 -0.0000 -0.0000
vn -0.0000 1.0000 -0.0000
vn -1.0000 -0.0000 -0.0000
vn -1.0000 0.0004 0.0002
vn 0.5222 -0.8526 0.0207
vn -0.0001 -1.0000 -0.0069
vn -0.0000 -0.2421 0.9703
vn 0.3065 -0.2299 0.9237
vn 0.3085 0.2239 0.9245
vn -0.0000 0.2080 0.9781
vn 0.5377 0.8429 0.0180
vn 0.3350 -0.9331 0.1306
vn 0.0645 -0.9842 0.1649
vn 0.9687 0.0832 0.2337
vn 0.9680 -0.0868 0.2356
vn 0.9881 -0.0842 0.1284
vn 0.9887 0.0797 0.1266
vn 0.5616 -0.2152 0.7989
vn 0.5646 0.2088 0.7985
vn 0.3718 0.9194 0.1281
vn 0.0730 0.9816 0.1766
vn 0.9922 0.1249 -0.0000
vn 0.9927 0.1202 -0.0000
vn 0.8173 0.5762 -0.0001
vn 0.8063 0.5915 -0.0000
vn 0.5317 0.4049 0.7439
vn 0.3003 0.4476 0.8423
vn 0.1055 0.9463 0.3055
vn 0.3830 0.8901 0.2472
vn 0.9856 0.1460 0.0852
vn 0.9548 0.1939 0.2253
vn 0.7089 0.6972 0.1063
vn -0.2546 0.9604 0.1131
vn -0.2839 0.9423 0.1776
vn -0.0000 0.4604 0.8877
vn -0.3187 0.9479 -0.0000
vn 0.9897 -0.1430 -0.0001
vn 0.9892 -0.1468 -0.0000
vn 0.7564 -0.6541 -0.0000
vn 0.7650 -0.6440 -0.0004
vn 0.9979 -0.0653 -0.0001
vn 0.9913 -0.1314 -0.0001
vn 0.7920 -0.6105 -0.0005
vn 0.9518 -0.2037 0.2295
vn 0.9843 -0.1545 0.0859
vn 0.6725 -0.7312 0.1146
vn 0.3535 -0.9026 0.2454
vn 0.2951 -0.4595 0.8377
vn 0.5242 -0.4173 0.7424
vn 0.0963 -0.9498 0.2976
vn -0.0002 -0.9895 0.1448
vn -0.0000 -0.9522 0.3054
vn -0.0000 -0.4717 0.8817
vn -0.0003 -0.9998 -0.0196
vn -1.0000 -0.0036 0.0004
vn -1.0000 -0.0011 0.0003
vn -0.9933 0.1159 0.0001
vn -0.9931 0.1169 -0.0000
vn -0.5736 0.8192 -0.0000
vn -0.9713 0.2380 -0.0000
vn -0.9935 0.1138 0.0002
vn -0.9957 0.0923 0.0002
vn -1.0000 -0.0051 0.0002
vn 0.9975 -0.0710 0.0001
vn -1.0000 0.0004 -0.0002
vn 0.5222 -0.8526 -0.0207
vn -0.0001 -1.0000 0.0069
vn -0.0000 -0.2421 -0.9703
vn -0.0000 0.2080 -0.9781
vn 0.3085 0.2239 -0.9245
vn 0.3065 -0.2299 -0.9237
vn 0.5377 0.8429 -0.0180
vn 0.3350 -0.9331 -0.1306
vn 0.0645 -0.9842 -0.1649
vn 0.9687 0.0832 -0.2337
vn 0.9887 0.0797 -0.1266
vn 0.9881 -0.0842 -0.1284
vn 0.9680 -0.0868 -0.2356
vn 0.5646 0.2088 -0.7985
vn 0.5616 -0.2152 -0.7989
vn 0.3718 0.9194 -0.1281
vn 0.0730 0.9816 -0.1766
vn 0.8173 0.5762 0.0001
vn 0.3003 0.4476 -0.8423
vn 0.5317 0.4049 -0.7439
vn 0.1055 0.9463 -0.3055
vn 0.3830 0.8901 -0.2472
vn 0.9548 0.1939 -0.2253
vn 0.9856 0.1460 -0.0852
vn 0.7089 0.6972 -0.1063
vn -0.2839 0.9423 -0.1776
vn -0.2546 0.9604 -0.1131
vn -0.0000 0.4604 -0.8877
vn 0.9897 -0.1430 0.0001
vn 0.7650 -0.6440 0.0004
vn 0.9913 -0.1314 0.0001
vn 0.9979 -0.0653 0.0001
vn 0.7920 -0.6105 0.0005
vn 0.9843 -0.1545 -0.0859
vn 0.9518 -0.2037 -0.2295
vn 0.6725 -0.7312 -0.1146
vn 0.3535 -0.9026 -0.2454
vn 0.5242 -0.4173 -0.7424
vn 0.2951 -0.4595 -0.8377
vn 0.0963 -0.9498 -0.2976
vn -0.0002 -0.9895 -0.1448
vn -0.0000 -0.9522 -0.3054
vn -0.0000 -0.4717 -0.8818
vn -0.0003 -0.9998 0.0196
vn -1.0000 -0.0036 -0.0004
vn -1.0000 -0.0011 -0.0003
vn -0.9933 0.1159 -0.0001
vn -0.9935 0.1138 -0.0002
vn -0.9957 0.0923 -0.0002
vn -1.0000 -0.0051 -0.0002
vt 0.356232 0.255058
vt 0.777187 0.630406
vt 0.356252 0.194874
vt 0.849214 0.630406
vt 0.244491 0.194872
vt 0.723248 0.892261
vt 0.006137 0.747324
vt 0.006137 0.496704
vt 0.782055 0.868149
vt 0.293556 0.459904
vt 0.042937 0.459904
vt 0.844347 0.868149
vt 0.478654 0.892705
vt 0.478655 0.966546
vt 0.468985 0.811510
vt 0.178267 0.000278
vt 0.478581 0.811511
vt 0.274980 0.255021
vt 0.274969 0.194866
vt 0.843859 0.962697
vt 0.993164 0.371236
vt 0.993164 0.621855
vt 0.706320 0.335011
vt 0.956940 0.335011
vt 0.782542 0.962697
vt 0.244491 0.000278
vt 0.849214 0.997034
vt 0.468987 0.892732
vt 0.433627 0.610145
vt 0.843543 0.957755
vt 0.362762 0.423667
vt 0.782858 0.957755
vt 0.565778 0.315990
vt 0.379300 0.386856
vt 0.847568 0.516831
vt 0.811344 0.480607
vt 0.867854 0.496546
vt 0.831630 0.460322
vt 0.315611 0.194867
vt 0.459942 0.621968
vt 0.646420 0.551102
vt 0.843543 0.914374
vt 0.662958 0.514290
vt 0.782858 0.914374
vt 0.592093 0.327812
vt 0.315600 0.255039
vt 0.274969 0.000278
vt 0.849214 0.960561
vt 0.777187 0.960561
vt 0.274815 0.449517
vt 0.318232 0.484580
vt 0.318232 0.735200
vt 0.844347 0.909919
vt 0.030813 0.772000
vt 0.281433 0.772000
vt 0.782055 0.909919
vt 0.315612 0.000278
vt 0.849214 0.911921
vt 0.356256 0.000278
vt 0.849214 0.863281
vt 0.356073 0.449584
vt 0.777187 0.863281
vt 0.315444 0.449551
vt 0.777187 0.911921
vt 0.491433 0.481474
vt 0.507971 0.444662
vt 0.517749 0.493296
vt 0.534287 0.456484
vt 0.192922 0.609890
vt 0.168247 0.585214
vt 0.131447 0.622014
vt 0.156123 0.646690
vt 0.686034 0.355297
vt 0.686034 0.605917
vt 0.782542 0.997034
vt 0.469507 0.959387
vt 0.843859 0.997034
vt 0.722258 0.642141
vt 0.972878 0.642141
vt 0.468995 0.898218
vt 0.777187 0.997034
vt 0.469547 0.964940
vt 0.478645 0.978565
vt 0.244349 0.449491
vt 0.714651 0.966737
vt 0.478178 0.892705
vt 0.477102 0.892706
vt 0.477762 0.892706
vt 0.478119 0.811511
vt 0.477037 0.811511
vt 0.477692 0.811511
vt 0.715548 0.968879
vt 0.716026 0.968451
vt 0.715339 0.968122
vt 0.478523 0.967129
vt 0.477273 0.968451
vt 0.478437 0.968686
vt 0.478024 0.968028
vt 0.478462 0.967970
vt 0.477119 0.967378
vt 0.478106 0.966568
vt 0.477706 0.967151
vt 0.477147 0.967903
vt 0.478164 0.966937
vt 0.477747 0.967590
vt 0.715444 0.978761
vt 0.244438 0.255052
vt 0.723118 0.965581
vt 0.470135 0.892731
vt 0.469724 0.892732
vt 0.469894 0.892731
vt 0.470132 0.811510
vt 0.469718 0.811510
vt 0.469891 0.811510
vt 0.470139 0.898214
vt 0.469738 0.898216
vt 0.469898 0.898215
vt 0.715446 0.976309
vt 0.723214 0.968032
vt 0.715446 0.975733
vt 0.722885 0.968454
vt 0.715446 0.975996
vt 0.723117 0.968331
vt 0.470359 0.966625
vt 0.470726 0.966957
vt 0.470500 0.966851
vt 0.470380 0.968024
vt 0.478431 0.975539
vt 0.469858 0.967461
vt 0.478463 0.976119
vt 0.470100 0.967819
vt 0.478440 0.975803
vt 0.470638 0.967473
vt 0.470246 0.967084
vt 0.470422 0.967333
vt 0.178267 0.194872
vt 0.723271 0.811545
vt 0.716028 0.965577
vt 0.715340 0.965577
vt 0.716060 0.892259
vt 0.714684 0.892258
vt 0.715372 0.892259
vt 0.716080 0.811544
vt 0.714704 0.811543
vt 0.715392 0.811543
vt 0.714651 0.967329
vt 0.000302 0.255058
vt 0.936616 0.629838
vt 0.000282 0.194874
vt 0.863982 0.629838
vt 0.112043 0.194872
vt 0.723271 0.730828
vt 0.125628 0.988459
vt 0.376248 0.988459
vt 0.931707 0.869584
vt 0.413047 0.701040
vt 0.413047 0.951659
vt 0.868890 0.869584
vt 0.478676 0.730317
vt 0.478698 0.656476
vt 0.081554 0.255021
vt 0.081565 0.194866
vt 0.869382 0.964928
vt 0.770411 0.020547
vt 0.596411 0.200920
vt 1.002004 0.193625
vt 0.821631 0.019626
vt 0.931216 0.964928
vt 0.112043 0.000278
vt 0.863982 0.999555
vt 0.469009 0.730287
vt 0.672815 0.332646
vt 0.869701 0.959944
vt 0.672815 0.082026
vt 0.930896 0.959944
vt 0.386345 0.046176
vt 0.636965 0.046176
vt 0.774114 0.226417
vt 0.825334 0.225495
vt 0.773598 0.197733
vt 0.824818 0.196812
vt 0.040923 0.194867
vt 0.647187 0.358274
vt 0.396567 0.358274
vt 0.869701 0.916198
vt 0.360717 0.322423
vt 0.930896 0.916198
vt 0.360717 0.071804
vt 0.040934 0.255039
vt 0.081565 0.000278
vt 0.863982 0.962774
vt 0.936616 0.962774
vt 0.081719 0.449517
vt 0.388371 0.676363
vt 0.137751 0.676363
vt 0.868890 0.911706
vt 0.100952 0.963783
vt 0.100952 0.713163
vt 0.931707 0.911706
vt 0.040921 0.000278
vt 0.863982 0.913725
vt 0.000278 0.000278
vt 0.863982 0.864675
vt 0.000461 0.449584
vt 0.936616 0.864675
vt 0.041090 0.449551
vt 0.936616 0.913725
vt 0.547505 0.207336
vt 0.511655 0.171486
vt 0.521877 0.232964
vt 0.486027 0.197114
vt 0.263061 0.801674
vt 0.287737 0.826349
vt 0.250938 0.863149
vt 0.226262 0.838473
vt 1.002520 0.222308
vt 0.828521 0.402681
vt 0.931216 0.999554
vt 0.469548 0.663633
vt 0.869382 0.999555
vt 0.777300 0.403603
vt 0.596927 0.229603
vt 0.469019 0.724801
vt 0.936616 0.999554
vt 0.469589 0.658080
vt 0.478691 0.644457
vt 0.112185 0.449491
vt 0.714694 0.656350
vt 0.478201 0.730316
vt 0.477124 0.730315
vt 0.477785 0.730316
vt 0.715591 0.654208
vt 0.716070 0.654636
vt 0.715382 0.654965
vt 0.478566 0.655893
vt 0.477316 0.654571
vt 0.478480 0.654336
vt 0.478067 0.654994
vt 0.478505 0.655052
vt 0.477162 0.655644
vt 0.478148 0.656454
vt 0.477749 0.655871
vt 0.477190 0.655119
vt 0.478207 0.656084
vt 0.477790 0.655432
vt 0.715490 0.644326
vt 0.112096 0.255052
vt 0.723161 0.657509
vt 0.470157 0.730289
vt 0.469747 0.730288
vt 0.469917 0.730288
vt 0.470163 0.724806
vt 0.469762 0.724804
vt 0.469922 0.724805
vt 0.715491 0.646778
vt 0.723257 0.655057
vt 0.715491 0.647354
vt 0.722928 0.654635
vt 0.715491 0.647092
vt 0.723160 0.654759
vt 0.470401 0.656395
vt 0.470769 0.656064
vt 0.470542 0.656169
vt 0.470423 0.654996
vt 0.478476 0.647483
vt 0.469900 0.655559
vt 0.478508 0.646903
vt 0.470143 0.655201
vt 0.478485 0.647219
vt 0.470681 0.655547
vt 0.470289 0.655936
vt 0.470465 0.655687
vt 0.716070 0.657510
vt 0.715382 0.657510
vt 0.716082 0.730829
vt 0.714706 0.730829
vt 0.715394 0.730829
vt 0.714694 0.655758
s 1
usemtl Desk
f 11/19/1 3/5/1 14/26/1 25/47/1
f 41/73/1 13/23/1 20/38/1 18/36/1
f 14/28/2 8/15/2 67/113/2 64/110/2
f 14/26/2 3/5/2 84/136/2 8/16/2
f 46/87/3 63/109/4 66/112/5 49/90/6
f 32/63/7 26/50/7 10/18/7 24/46/7
f 22/40/7 15/29/7 33/65/7 35/67/7
f 21/39/1 11/19/1 25/47/1 29/57/1
f 42/77/8 12/20/8 25/48/8 14/27/8
f 12/20/8 13/25/8 26/49/8 25/48/8
f 19/37/8 17/35/8 18/36/8 20/38/8
f 42/78/2 41/74/2 18/36/2 17/35/2
f 13/24/9 12/21/9 19/37/9 20/38/9
f 12/22/7 42/79/7 17/35/7 19/37/7
f 2/3/1 21/39/1 29/57/1 30/59/1
f 23/43/9 22/41/9 35/67/9 36/68/9
f 31/61/7 32/63/7 24/46/7 1/1/7
f 16/32/8 15/30/8 25/48/8 26/49/8
f 15/30/8 22/42/8 29/58/8 25/48/8
f 23/44/8 16/32/8 26/49/8 32/64/8
f 22/42/8 23/44/8 32/64/8 29/58/8
f 5/12/8 4/9/8 31/62/8 30/60/8
f 28/56/8 27/53/8 29/58/8 32/64/8
f 35/67/8 33/65/8 34/66/8 36/68/8
f 38/70/8 37/69/8 40/72/8 39/71/8
f 28/54/1 4/7/1 39/71/1 40/72/1
f 5/10/7 27/51/7 37/69/7 38/70/7
f 16/33/1 23/45/1 36/68/1 34/66/1
f 27/52/2 28/55/2 40/72/2 37/69/2
f 15/31/2 16/34/2 34/66/2 33/65/2
f 4/8/9 5/11/9 38/70/9 39/71/9
f 9/17/9 6/13/9 45/86/9 48/89/9
f 42/80/2 14/28/2 64/110/2 70/116/2
f 1/1/10 24/46/10 21/39/10 2/3/10
f 24/46/10 10/18/11 11/19/11 21/39/10
f 43/81/8 26/49/8 13/25/8 41/75/8
f 2/4/2 30/60/2 31/62/2 1/2/2
f 31/62/8 4/9/8 28/56/8 32/64/8
f 5/12/8 30/60/8 29/58/8 27/53/8
f 75/124/12 43/82/13 41/76/2 42/80/2 70/116/2
f 73/120/14 78/128/15 54/97/16 51/92/17
f 6/13/9 7/14/9 57/101/18 45/86/9
f 75/124/12 82/134/19 43/82/13
f 82/134/19 79/129/20 43/82/13
f 59/103/21 81/133/22 76/125/23 56/100/24
f 54/96/16 78/127/15 81/133/25 59/103/26
f 60/104/27 57/101/18 7/14/9
f 53/95/28 60/104/27 7/14/9
f 46/87/3 49/90/6 50/91/29 47/88/30
f 47/88/31 50/91/32 48/89/32 45/86/31
f 54/96/16 59/103/26 61/105/33 55/98/34
f 55/98/35 61/105/36 60/104/27 53/95/28
f 59/103/21 56/100/24 58/102/37 61/105/38
f 61/105/36 58/102/39 57/101/18 60/104/27
f 53/95/28 93/146/40 52/94/41 55/99/35
f 55/99/34 52/94/42 51/92/17 54/97/16
f 45/86/31 57/101/18 58/102/39 47/88/31
f 47/88/30 58/102/37 56/100/24 46/87/3
f 7/14/9 44/85/43 93/146/40 53/95/28
f 66/112/5 63/109/4 65/111/44 68/114/45
f 68/114/46 65/111/47 64/110/47 67/113/46
f 63/109/4 69/115/48 71/117/49 65/111/44
f 65/111/47 71/117/50 70/116/50 64/110/47
f 76/125/23 81/133/22 83/135/51 77/126/52
f 77/126/53 83/135/54 82/134/19 75/124/12
f 81/133/25 78/127/15 80/131/55 83/135/56
f 83/135/54 80/131/57 79/129/20 82/134/19
f 72/118/58 79/130/20 80/132/57 74/122/59
f 74/122/60 80/132/55 78/128/15 73/120/14
f 75/124/12 70/116/50 71/117/50 77/126/53
f 77/126/52 71/117/49 69/115/48 76/125/23
f 62/106/61 43/83/13 79/130/20 72/118/58
f 46/87/3 69/115/48 63/109/4
f 62/107/62 3/5/63 11/19/11 10/18/11
f 26/50/7 43/84/7 62/107/7 10/18/7
f 69/115/48 46/87/3 56/100/24 76/125/23
f 3/6/63 87/140/64 90/143/65 84/137/10
f 88/141/43 6/13/9 9/17/9 91/144/43
f 6/13/9 88/141/43 44/85/43 7/14/9
f 88/141/43 91/144/43 92/145/66 89/142/66
f 89/142/67 92/145/67 90/143/65 87/140/64
f 44/85/43 88/141/43 89/142/66 86/139/66
f 86/139/67 89/142/67 87/140/64 85/138/68
f 93/146/40 44/85/43 86/139/66 52/94/41
f 52/94/67 86/139/67 85/138/68 51/93/69
f 51/93/69 85/138/68 62/108/62 73/121/70
f 87/140/64 3/6/63 62/108/62 85/138/68
f 73/121/70 62/108/62 74/123/10
f 74/123/10 62/108/62 72/119/10
f 102/162/7 116/190/7 105/169/7 96/151/7
f 132/216/7 109/179/7 111/181/7 104/166/7
f 105/171/2 152/250/2 67/113/2 8/15/2
f 105/169/2 8/16/2 84/136/2 96/151/2
f 137/230/3 49/90/6 66/112/5 151/249/71
f 123/206/1 115/189/1 101/161/1 117/193/1
f 113/183/1 126/210/1 124/208/1 106/172/1
f 112/182/7 120/200/7 116/190/7 102/162/7
f 133/220/8 105/170/8 116/191/8 103/163/8
f 103/163/8 116/191/8 117/192/8 104/168/8
f 110/180/8 111/181/8 109/179/8 108/178/8
f 133/221/2 108/178/2 109/179/2 132/217/2
f 104/167/9 111/181/9 110/180/9 103/164/9
f 103/165/1 110/180/1 108/178/1 133/222/1
f 95/149/7 121/202/7 120/200/7 112/182/7
f 114/186/9 127/211/9 126/210/9 113/184/9
f 122/204/1 94/147/1 115/189/1 123/206/1
f 107/175/8 117/192/8 116/191/8 106/173/8
f 106/173/8 116/191/8 120/201/8 113/185/8
f 114/187/8 123/207/8 117/192/8 107/175/8
f 113/185/8 120/201/8 123/207/8 114/187/8
f 98/158/8 121/203/8 122/205/8 97/155/8
f 119/199/8 123/207/8 120/201/8 118/196/8
f 126/210/8 127/211/8 125/209/8 124/208/8
f 129/213/8 130/214/8 131/215/8 128/212/8
f 119/197/7 131/215/7 130/214/7 97/153/7
f 98/156/1 129/213/1 128/212/1 118/194/1
f 107/176/7 125/209/7 127/211/7 114/188/7
f 118/195/2 128/212/2 131/215/2 119/198/2
f 106/174/2 124/208/2 125/209/2 107/177/2
f 97/154/9 130/214/9 129/213/9 98/157/9
f 9/17/9 48/89/9 136/229/9 99/159/9
f 133/223/2 155/253/2 152/250/2 105/171/2
f 94/147/10 95/149/10 112/182/10 115/189/10
f 115/189/10 112/182/10 102/162/72 101/161/72
f 134/224/8 132/218/8 104/168/8 117/192/8
f 95/150/2 94/148/2 122/205/2 121/203/2
f 122/205/8 123/207/8 119/199/8 97/155/8
f 98/158/8 118/196/8 120/201/8 121/203/8
f 160/261/73 155/253/2 133/223/2 132/219/2 134/225/74
f 158/257/75 139/232/76 142/237/77 163/265/78
f 99/159/9 136/229/9 145/241/79 100/160/9
f 160/261/73 134/225/74 167/271/80
f 167/271/80 134/225/74 164/266/81
f 147/243/82 144/240/83 161/262/84 166/270/85
f 142/236/77 147/243/86 166/270/87 163/264/78
f 148/244/88 100/160/9 145/241/79
f 141/235/89 100/160/9 148/244/88
f 137/230/3 138/231/30 50/91/29 49/90/6
f 138/231/90 136/229/90 48/89/32 50/91/32
f 142/236/77 143/238/91 149/245/92 147/243/86
f 143/238/93 141/235/89 148/244/88 149/245/94
f 147/243/82 149/245/95 146/242/96 144/240/83
f 149/245/94 148/244/88 145/241/79 146/242/97
f 141/235/89 143/239/93 140/234/98 174/278/99
f 143/239/91 142/237/77 139/232/76 140/234/100
f 136/229/90 138/231/90 146/242/97 145/241/79
f 138/231/30 137/230/3 144/240/83 146/242/96
f 100/160/9 141/235/89 174/278/99 135/228/43
f 66/112/5 68/114/45 153/251/101 151/249/71
f 68/114/46 67/113/46 152/250/102 153/251/102
f 151/249/71 153/251/101 156/254/103 154/252/104
f 153/251/102 152/250/102 155/253/105 156/254/105
f 161/262/84 162/263/106 168/272/107 166/270/85
f 162/263/108 160/261/73 167/271/80 168/272/109
f 166/270/87 168/272/110 165/268/111 163/264/78
f 168/272/109 167/271/80 164/266/81 165/268/112
f 157/255/113 159/259/114 165/269/112 164/267/81
f 159/259/115 158/257/75 163/265/78 165/269/111
f 160/261/73 162/263/108 156/254/105 155/253/105
f 162/263/106 161/262/84 154/252/104 156/254/103
f 150/246/116 157/255/113 164/267/81 134/226/74
f 137/230/3 151/249/71 154/252/104
f 150/247/117 101/161/72 102/162/72 96/151/118
f 117/193/1 101/161/1 150/247/1 134/227/1
f 154/252/104 161/262/84 144/240/83 137/230/3
f 96/152/118 84/137/10 90/143/65 171/275/119
f 172/276/43 91/144/43 9/17/9 99/159/9
f 99/159/9 100/160/9 135/228/43 172/276/43
f 172/276/43 173/277/66 92/145/66 91/144/43
f 173/277/67 171/275/119 90/143/65 92/145/67
f 135/228/43 170/274/66 173/277/66 172/276/43
f 170/274/67 169/273/120 171/275/119 173/277/67
f 174/278/99 140/234/98 170/274/66 135/228/43
f 140/234/67 139/233/121 169/273/120 170/274/67
f 139/233/121 158/258/122 150/248/117 169/273/120
f 171/275/119 169/273/120 150/248/117 96/152/118
f 158/258/122 159/260/10 150/248/117
f 159/260/10 157/256/10 150/248/117
